<svg width="25.000000" height="20.000000" viewBox="0 0 25 20" fill="none" xmlns="http://www.w3.org/2000/svg" xmlns:xlink="http://www.w3.org/1999/xlink">
  <desc>
    Created with Pixso.
  </desc>
  <defs/>
  <path id="Vector" d="M5.62 0C6.45 0 7.24 0.32 7.83 0.91C8.42 1.5 8.75 2.29 8.75 3.12C8.75 3.95 8.42 4.74 7.83 5.33C7.24 5.92 6.45 6.25 5.62 6.25C4.79 6.25 4 5.92 3.41 5.33C2.82 4.74 2.5 3.95 2.5 3.12C2.5 2.29 2.82 1.5 3.41 0.91C4 0.32 4.79 0 5.62 0ZM20 0C20.82 0 21.62 0.32 22.2 0.91C22.79 1.5 23.12 2.29 23.12 3.12C23.12 3.95 22.79 4.74 22.2 5.33C21.62 5.92 20.82 6.25 20 6.25C19.17 6.25 18.37 5.92 17.79 5.33C17.2 4.74 16.87 3.95 16.87 3.12C16.87 2.29 17.2 1.5 17.79 0.91C18.37 0.32 19.17 0 20 0ZM0 11.66C0 9.36 1.86 7.5 4.16 7.5L5.83 7.5C6.45 7.5 7.04 7.63 7.57 7.87C7.52 8.16 7.5 8.45 7.5 8.75C7.5 10.24 8.16 11.58 9.19 12.5C9.18 12.5 9.17 12.5 9.16 12.5L0.83 12.5C0.37 12.5 0 12.12 0 11.66ZM15.83 12.5C15.82 12.5 15.81 12.5 15.8 12.5C16.84 11.58 17.49 10.24 17.49 8.75C17.49 8.45 17.46 8.16 17.42 7.87C17.95 7.63 18.54 7.5 19.16 7.5L20.83 7.5C23.13 7.5 25 9.36 25 11.66C25 12.12 24.62 12.5 24.16 12.5L15.83 12.5ZM8.75 8.75C8.75 7.75 9.14 6.8 9.84 6.09C10.55 5.39 11.5 5 12.5 5C13.49 5 14.44 5.39 15.15 6.09C15.85 6.8 16.25 7.75 16.25 8.75C16.25 9.74 15.85 10.69 15.15 11.4C14.44 12.1 13.49 12.5 12.5 12.5C11.5 12.5 10.55 12.1 9.84 11.4C9.14 10.69 8.75 9.74 8.75 8.75ZM5 18.95C5 16.08 7.33 13.75 10.2 13.75L14.79 13.75C17.66 13.75 20 16.08 20 18.95C20 19.53 19.53 20 18.95 20L6.04 20C5.46 20 5 19.53 5 18.95Z" fill="#5EE2CD" fill-opacity="1.000000" fill-rule="nonzero"/>
</svg>
