<svg width="22.000000" height="22.000000" viewBox="0 0 22 22" fill="none" xmlns="http://www.w3.org/2000/svg" xmlns:xlink="http://www.w3.org/1999/xlink">
  <desc>
    Created with Pixso.
  </desc>
  <defs/>
  <path id="Vector" d="M11 2.06C6.06 2.06 2.06 6.06 2.06 11L2.06 12.71C2.06 13.29 1.6 13.75 1.03 13.75C0.45 13.75 0 13.29 0 12.71L0 11C0 4.92 4.92 0 11 0C17.07 0 22 4.92 22 11L22 17.19C22 19.28 20.3 20.97 18.21 20.97L13.47 20.96C13.11 21.58 12.45 22 11.68 22L10.31 22C9.17 22 8.25 21.07 8.25 19.93C8.25 18.79 9.17 17.87 10.31 17.87L11.68 17.87C12.45 17.87 13.11 18.29 13.47 18.9L18.21 18.91C19.16 18.91 19.93 18.14 19.93 17.19L19.93 11C19.93 6.06 15.93 2.06 11 2.06ZM6.18 8.93L6.87 8.93C7.63 8.93 8.25 9.55 8.25 10.31L8.25 15.12C8.25 15.88 7.63 16.5 6.87 16.5L6.18 16.5C4.67 16.5 3.43 15.26 3.43 13.75L3.43 11.68C3.43 10.17 4.67 8.93 6.18 8.93ZM15.81 8.93C17.32 8.93 18.56 10.17 18.56 11.68L18.56 13.75C18.56 15.26 17.32 16.5 15.81 16.5L15.12 16.5C14.36 16.5 13.75 15.88 13.75 15.12L13.75 10.31C13.75 9.55 14.36 8.93 15.12 8.93L15.81 8.93Z" fill="#5EE2CD" fill-opacity="1.000000" fill-rule="nonzero"/>
</svg>
