<svg width="28.000000" height="22.000000" viewBox="0 0 28 22" fill="none" xmlns="http://www.w3.org/2000/svg" xmlns:xlink="http://www.w3.org/1999/xlink">
  <desc>
    Created with Pixso.
  </desc>
  <defs/>
  <path id="Vector" d="M8.21 0L11.6 0L11.6 2.87C11.6 3.67 12.24 4.31 13.05 4.31C13.85 4.31 14.5 3.67 14.5 2.87L14.5 0L17.88 0C19.11 0 20.21 0.76 20.62 1.91L22.55 7.33C22.06 7.23 21.55 7.18 21.02 7.18C18.32 7.18 15.94 8.51 14.5 10.54L14.5 8.62C14.5 7.82 13.85 7.18 13.05 7.18C12.24 7.18 11.6 7.82 11.6 8.62L11.6 11.5C11.6 12.29 12.24 12.93 13.05 12.93C13.15 12.93 13.25 12.92 13.35 12.9C13.15 13.6 13.05 14.33 13.05 15.09C13.05 15.33 13.05 15.57 13.08 15.81L13.05 15.81C12.24 15.81 11.6 16.45 11.6 17.25L11.6 20.12L2.47 20.12C1.11 20.12 0 19.02 0 17.67C0 17.39 0.04 17.11 0.14 16.85L5.47 1.91C5.89 0.76 6.98 0 8.21 0ZM14.5 15.09C14.5 13.37 15.18 11.73 16.41 10.51C17.63 9.3 19.29 8.62 21.02 8.62C22.75 8.62 24.41 9.3 25.63 10.51C26.86 11.73 27.55 13.37 27.55 15.09C27.55 16.8 26.86 18.45 25.63 19.66C24.41 20.88 22.75 21.56 21.02 21.56C19.29 21.56 17.63 20.88 16.41 19.66C15.18 18.45 14.5 16.8 14.5 15.09ZM24.07 13.14C23.79 12.87 23.33 12.87 23.05 13.14L20.29 15.87L18.99 14.58C18.71 14.3 18.25 14.3 17.97 14.58C17.69 14.86 17.69 15.32 17.97 15.6L19.78 17.39C20.06 17.67 20.53 17.67 20.81 17.39L24.07 14.16C24.35 13.88 24.35 13.42 24.07 13.14Z" fill="#5EE2CD" fill-opacity="1.000000" fill-rule="nonzero"/>
</svg>
